<?xml version="1.0" standalone="no"?>
<!DOCTYPE svg PUBLIC "-//W3C//DTD SVG 20010904//EN"
 "http://www.w3.org/TR/2001/REC-SVG-20010904/DTD/svg10.dtd">
<svg version="1.0" xmlns="http://www.w3.org/2000/svg"
 width="700.000000pt" height="700.000000pt" viewBox="0 0 700.000000 700.000000"
 preserveAspectRatio="xMidYMid meet">
<metadata>
Created by potrace 1.14, written by Peter Selinger 2001-2017
</metadata>
<g transform="translate(0.000000,700.000000) scale(0.100000,-0.100000)"
fill="#000000" stroke="none">
<path d="M586 6411 c-2 -3 -3 -1315 -2 -2916 l1 -2910 290 0 290 0 1 2916 1
2916 -289 0 c-159 0 -290 -2 -292 -6z"/>
<path d="M1750 4521 l0 -438 2333 1 2333 0 0 435 -1 436 -2332 2 -2333 2 0
-438z"/>
<path d="M1750 2479 l0 -437 1458 0 1459 0 -1 436 -1 437 -1457 1 -1458 1 0
-438z"/>
</g>
</svg>
